<?xml version="1.0" encoding="UTF-8" standalone="no"?>
<!-- Created with Inkscape (http://www.inkscape.org/) -->

<svg
   xmlns:dc="http://purl.org/dc/elements/1.1/"
   xmlns:cc="http://creativecommons.org/ns#"
   xmlns:rdf="http://www.w3.org/1999/02/22-rdf-syntax-ns#"
   xmlns:svg="http://www.w3.org/2000/svg"
   xmlns="http://www.w3.org/2000/svg"
   xmlns:sodipodi="http://sodipodi.sourceforge.net/DTD/sodipodi-0.dtd"
   xmlns:inkscape="http://www.inkscape.org/namespaces/inkscape"
   version="1.1"
   id="svg45"
   xml:space="preserve"
   viewBox="0 0 431.88338 431.88336"
   sodipodi:docname="wa-logo.svg"
   inkscape:version="0.92.2 5c3e80d, 2017-08-06"><metadata
     id="metadata51"><rdf:RDF><cc:Work
         rdf:about=""><dc:format>image/svg+xml</dc:format><dc:type
           rdf:resource="http://purl.org/dc/dcmitype/StillImage" /><dc:title></dc:title></cc:Work></rdf:RDF></metadata><defs
     id="defs49"><clipPath
       clipPathUnits="userSpaceOnUse"
       id="clipPath69"><path
         d="M 0,750 H 1000 V 0 H 0 Z"
         id="path67"
         inkscape:connector-curvature="0" /></clipPath><clipPath
       clipPathUnits="userSpaceOnUse"
       id="clipPath97"><path
         d="M 0,750 H 1000 V 0 H 0 Z"
         id="path95"
         inkscape:connector-curvature="0" /></clipPath><clipPath
       clipPathUnits="userSpaceOnUse"
       id="clipPath121"><path
         d="M 0,750 H 1000 V 0 H 0 Z"
         id="path119"
         inkscape:connector-curvature="0" /></clipPath><clipPath
       clipPathUnits="userSpaceOnUse"
       id="clipPath141"><path
         d="M 0,750 H 1000 V 0 H 0 Z"
         id="path139"
         inkscape:connector-curvature="0" /></clipPath></defs><sodipodi:namedview
     pagecolor="#ffffff"
     bordercolor="#666666"
     borderopacity="1"
     objecttolerance="10"
     gridtolerance="10"
     guidetolerance="10"
     inkscape:pageopacity="0"
     inkscape:pageshadow="2"
     inkscape:window-width="1592"
     inkscape:window-height="999"
     id="namedview47"
     showgrid="false"
     showguides="true"
     inkscape:guide-bbox="true"
     inkscape:zoom="0.64659538"
     inkscape:cx="497.31422"
     inkscape:cy="628.29677"
     inkscape:window-x="0"
     inkscape:window-y="0"
     inkscape:window-maximized="0"
     inkscape:current-layer="g53"
     fit-margin-top="0"
     fit-margin-left="0"
     fit-margin-right="0"
     fit-margin-bottom="0" /><g
     id="g53"
     inkscape:groupmode="layer"
     inkscape:label="web-assembly-logo"
     transform="matrix(1.3333333,0,0,-1.3333333,-45.627429,715.94172)"><g
       id="g59"><g
         transform="matrix(1.7343005,0,0,1.7343005,-168.93485,-589.15585)"
         id="g4702"><g
           id="g143"
           transform="matrix(1.7354755,0,0,1.7354755,274.44666,482.53685)"><path
             d="M 0,0 -2.429,8.484 H -15.244 L -17.112,0 h -7.171 l 9.227,38.101 H -3.809 L 7.398,0 Z m -39.265,0 -5.241,25.934 h -0.091 L -50.249,0 h -7.217 l -8.21,38.101 h 7.126 l 4.879,-25.934 h 0.09 l 5.879,25.934 h 6.673 l 5.283,-26.255 h 0.091 l 5.565,26.255 h 6.99 L -32.184,0 Z m 14.745,96.101 c 0.009,-0.193 0.029,-0.384 0.029,-0.579 0,-6.816 -5.526,-12.342 -12.342,-12.342 -6.816,0 -12.342,5.526 -12.342,12.342 0,0.195 0.02,0.386 0.029,0.579 H -90.642 V -11.517 H 16.976 V 96.101 Z"
             style="fill:#654ff0;fill-opacity:1;fill-rule:nonzero;stroke:none"
             id="path145"
             inkscape:connector-curvature="0" /></g><g
           id="g147"
           transform="matrix(1.7354755,0,0,1.7354755,255.75732,532.36062)"><path
             d="M 0,0 -3.11,-13.981 H 6.572 L 2.997,0 Z"
             style="fill:#654ff0;fill-opacity:1;fill-rule:nonzero;stroke:none"
             id="path149"
             inkscape:connector-curvature="0" /></g></g></g></g></svg>
